<svg xmlns="http://www.w3.org/2000/svg" xmlns:xlink="http://www.w3.org/1999/xlink" width="500" zoomAndPan="magnify" viewBox="0 0 375 374.999991" height="500" preserveAspectRatio="xMidYMid meet" version="1.0"><defs><g/><clipPath id="c8a294d921"><path d="M 152 140 L 262.023438 140 L 262.023438 187.6875 L 152 187.6875 Z M 152 140 " clip-rule="nonzero"/></clipPath><clipPath id="2b11392d30"><path d="M 112.773438 136 L 214 136 L 214 184 L 112.773438 184 Z M 112.773438 136 " clip-rule="nonzero"/></clipPath></defs><g fill="#444142" fill-opacity="1"><g transform="translate(83.976096, 230.119408)"><g><path d="M 11.109375 -34.828125 L 11.109375 0 L 3.171875 0 L 3.171875 -34.828125 Z M 11.109375 -34.828125 "/></g></g></g><g fill="#444142" fill-opacity="1"><g transform="translate(98.243411, 230.119408)"><g><path d="M 3.171875 0 L 3.171875 -34.828125 L 24.953125 -16.890625 L 25.03125 -34.828125 L 32.96875 -34.828125 L 32.96875 0 L 11.109375 -17.90625 L 11.109375 0 Z M 3.171875 0 "/></g></g></g><g fill="#444142" fill-opacity="1"><g transform="translate(134.376023, 230.119408)"><g><path d="M 22.921875 -34.828125 L 22.921875 -27.859375 L 10.6875 -27.859375 L 10.6875 -20.9375 L 22 -20.9375 L 22 -13.96875 L 10.6875 -13.96875 L 10.6875 0 L 2.75 0 L 2.75 -34.828125 Z M 22.921875 -34.828125 "/></g></g></g><g fill="#444142" fill-opacity="1"><g transform="translate(160.040312, 230.119408)"><g><path d="M 11.109375 -34.828125 L 11.109375 0 L 3.171875 0 L 3.171875 -34.828125 Z M 11.109375 -34.828125 "/></g></g></g><g fill="#444142" fill-opacity="1"><g transform="translate(174.307626, 230.119408)"><g><path d="M 3.171875 0 L 3.171875 -34.828125 L 24.953125 -16.890625 L 25.03125 -34.828125 L 32.96875 -34.828125 L 32.96875 0 L 11.109375 -17.90625 L 11.109375 0 Z M 3.171875 0 "/></g></g></g><g fill="#444142" fill-opacity="1"><g transform="translate(210.440238, 230.119408)"><g><path d="M 11.109375 -34.828125 L 11.109375 0 L 3.171875 0 L 3.171875 -34.828125 Z M 11.109375 -34.828125 "/></g></g></g><g fill="#444142" fill-opacity="1"><g transform="translate(224.707553, 230.119408)"><g><path d="M 2.15625 -27.859375 L 2.15625 -34.828125 L 26.640625 -34.828125 L 26.640625 -27.859375 L 18.359375 -27.859375 L 18.359375 0 L 10.421875 0 L 10.421875 -27.859375 Z M 2.15625 -27.859375 "/></g></g></g><g fill="#444142" fill-opacity="1"><g transform="translate(253.495449, 230.119408)"><g><path d="M 26.421875 -34.828125 L 35.765625 -34.828125 L 23.3125 -13.46875 L 23.3125 0 L 14.234375 0 L 14.234375 -13.46875 L 1.8125 -34.828125 L 11.140625 -34.828125 L 18.828125 -21.15625 Z M 26.421875 -34.828125 "/></g></g></g><g fill="#22c55e" fill-opacity="1"><g transform="translate(162.501741, 247.901381)"><g><path d="M 1.125 0 L 1.125 -10.640625 L 2.453125 -10.640625 L 2.453125 0 Z M 1.125 0 "/></g></g></g><g fill="#22c55e" fill-opacity="1"><g transform="translate(166.061494, 247.901381)"><g><path d="M 1.125 0 L 1.125 -10.640625 L 3.09375 -10.640625 L 6.796875 -1.3125 L 6.828125 -1.3125 L 6.78125 -3.5 L 6.78125 -10.640625 L 8.09375 -10.640625 L 8.09375 0 L 6.109375 0 L 2.40625 -9.390625 L 2.390625 -9.390625 L 2.4375 -7.46875 L 2.4375 0 Z M 1.125 0 "/></g></g></g><g fill="#22c55e" fill-opacity="1"><g transform="translate(175.261376, 247.901381)"><g><path d="M 1.125 0 L 1.125 -10.640625 L 6.328125 -10.640625 L 6.328125 -9.453125 L 2.46875 -9.453125 L 2.46875 -5.921875 L 5.796875 -5.921875 L 5.796875 -4.734375 L 2.46875 -4.734375 L 2.46875 0 Z M 1.125 0 "/></g></g></g><g fill="#22c55e" fill-opacity="1"><g transform="translate(181.856937, 247.901381)"><g><path d="M 4.375 0.15625 C 3.1875 0.15625 2.253906 -0.320312 1.578125 -1.28125 C 0.898438 -2.25 0.5625 -3.597656 0.5625 -5.328125 C 0.5625 -7.046875 0.898438 -8.382812 1.578125 -9.34375 C 2.253906 -10.3125 3.1875 -10.796875 4.375 -10.796875 C 5.570312 -10.796875 6.515625 -10.3125 7.203125 -9.34375 C 7.890625 -8.382812 8.234375 -7.046875 8.234375 -5.328125 C 8.234375 -3.597656 7.890625 -2.25 7.203125 -1.28125 C 6.515625 -0.320312 5.570312 0.15625 4.375 0.15625 Z M 4.390625 -1.0625 C 5.160156 -1.0625 5.769531 -1.429688 6.21875 -2.171875 C 6.675781 -2.921875 6.90625 -3.972656 6.90625 -5.328125 C 6.90625 -6.679688 6.675781 -7.726562 6.21875 -8.46875 C 5.769531 -9.21875 5.160156 -9.59375 4.390625 -9.59375 C 3.617188 -9.59375 3.003906 -9.21875 2.546875 -8.46875 C 2.097656 -7.726562 1.875 -6.679688 1.875 -5.328125 C 1.875 -3.972656 2.097656 -2.921875 2.546875 -2.171875 C 3.003906 -1.429688 3.617188 -1.0625 4.390625 -1.0625 Z M 4.390625 -1.0625 "/></g></g></g><g fill="#22c55e" fill-opacity="1"><g transform="translate(190.640746, 247.901381)"><g><path d="M 1.125 0 L 1.125 -10.640625 L 2.46875 -10.640625 L 2.46875 -1.1875 L 5.953125 -1.1875 L 5.953125 0 Z M 1.125 0 "/></g></g></g><g fill="#22c55e" fill-opacity="1"><g transform="translate(196.774001, 247.901381)"><g><path d="M 6.03125 0 L 5.46875 -2.3125 L 2.046875 -2.3125 L 1.5 0 L 0.109375 0 L 2.890625 -10.640625 L 4.65625 -10.640625 L 7.4375 0 Z M 2.3125 -3.421875 L 5.21875 -3.421875 L 3.921875 -8.890625 L 3.8125 -9.65625 L 3.765625 -9.65625 L 3.625 -8.890625 Z M 2.3125 -3.421875 "/></g></g></g><g fill="#22c55e" fill-opacity="1"><g transform="translate(204.30958, 247.901381)"><g><path d="M 1.125 0 L 1.125 -10.640625 L 4.4375 -10.640625 C 5.320312 -10.640625 6 -10.378906 6.46875 -9.859375 C 6.945312 -9.335938 7.1875 -8.648438 7.1875 -7.796875 C 7.1875 -7.140625 7.054688 -6.640625 6.796875 -6.296875 C 6.546875 -5.960938 6.234375 -5.726562 5.859375 -5.59375 L 5.859375 -5.515625 C 6.378906 -5.410156 6.800781 -5.132812 7.125 -4.6875 C 7.445312 -4.25 7.609375 -3.65625 7.609375 -2.90625 C 7.609375 -2.007812 7.363281 -1.300781 6.875 -0.78125 C 6.382812 -0.257812 5.710938 0 4.859375 0 Z M 2.4375 -5.953125 L 4.296875 -5.953125 C 4.722656 -5.953125 5.09375 -6.109375 5.40625 -6.421875 C 5.71875 -6.742188 5.875 -7.195312 5.875 -7.78125 C 5.875 -8.382812 5.742188 -8.816406 5.484375 -9.078125 C 5.222656 -9.335938 4.851562 -9.46875 4.375 -9.46875 L 2.4375 -9.46875 Z M 2.4375 -1.1875 L 4.6875 -1.1875 C 5.226562 -1.1875 5.628906 -1.347656 5.890625 -1.671875 C 6.160156 -2.003906 6.296875 -2.453125 6.296875 -3.015625 C 6.296875 -3.617188 6.132812 -4.082031 5.8125 -4.40625 C 5.5 -4.738281 5.125 -4.90625 4.6875 -4.90625 L 2.4375 -4.90625 Z M 2.4375 -1.1875 "/></g></g></g><g clip-path="url(#c8a294d921)"><path fill="#22c55e" d="M 152.441406 140.15625 C 152.441406 140.15625 152.574219 140.148438 152.832031 140.128906 C 153.089844 140.117188 153.476562 140.070312 153.976562 140.0625 C 154.484375 140.054688 155.113281 140.03125 155.851562 140.066406 C 156.035156 140.074219 156.226562 140.078125 156.425781 140.085938 C 156.625 140.101562 156.828125 140.117188 157.039062 140.128906 C 157.25 140.148438 157.46875 140.167969 157.695312 140.1875 C 157.921875 140.214844 158.152344 140.242188 158.386719 140.269531 C 159.34375 140.371094 160.386719 140.582031 161.527344 140.832031 C 162.660156 141.097656 163.875 141.464844 165.152344 141.921875 C 166.429688 142.378906 167.753906 142.96875 169.117188 143.640625 C 170.484375 144.320312 171.867188 145.128906 173.273438 146.019531 C 176.070312 147.816406 178.90625 150.007812 181.71875 152.433594 C 184.535156 154.859375 187.351562 157.503906 190.226562 160.144531 C 193.109375 162.789062 196.0625 165.433594 199.167969 167.84375 C 202.273438 170.261719 205.542969 172.429688 208.988281 174.175781 C 212.425781 175.9375 216.046875 177.257812 219.75 178.136719 C 220.675781 178.359375 221.605469 178.546875 222.539062 178.71875 C 222.980469 178.792969 223.421875 178.867188 223.859375 178.945312 C 224.367188 179.011719 224.875 179.078125 225.382812 179.144531 C 225.503906 179.160156 225.640625 179.179688 225.75 179.191406 L 226.078125 179.21875 L 226.730469 179.28125 L 227.382812 179.347656 L 228.066406 179.378906 L 228.75 179.414062 C 228.976562 179.429688 229.207031 179.441406 229.429688 179.441406 C 229.886719 179.445312 230.339844 179.453125 230.789062 179.457031 C 231.6875 179.429688 232.585938 179.425781 233.46875 179.347656 C 233.691406 179.332031 233.910156 179.316406 234.132812 179.300781 C 234.351562 179.285156 234.570312 179.253906 234.789062 179.230469 C 235.222656 179.183594 235.664062 179.148438 236.09375 179.085938 C 237.820312 178.859375 239.496094 178.503906 241.113281 178.085938 C 242.730469 177.671875 244.269531 177.132812 245.734375 176.546875 C 246.472656 176.265625 247.171875 175.929688 247.871094 175.617188 C 248.546875 175.269531 249.222656 174.933594 249.859375 174.566406 C 250.511719 174.21875 251.109375 173.824219 251.714844 173.453125 C 252.292969 173.054688 252.871094 172.667969 253.402344 172.257812 C 253.957031 171.867188 254.445312 171.433594 254.945312 171.027344 C 255.183594 170.8125 255.414062 170.597656 255.640625 170.390625 C 255.757812 170.285156 255.875 170.179688 255.988281 170.074219 C 256.09375 169.96875 256.203125 169.859375 256.308594 169.753906 C 257.191406 168.914062 257.886719 168.023438 258.554688 167.195312 C 259.171875 166.34375 259.710938 165.523438 260.128906 164.742188 C 260.972656 163.175781 261.457031 161.816406 261.699219 160.859375 C 261.777344 160.621094 261.816406 160.410156 261.859375 160.226562 C 261.898438 160.039062 261.933594 159.882812 261.960938 159.757812 C 262.015625 159.5 262.042969 159.371094 262.042969 159.371094 C 262.042969 159.371094 262.058594 159.503906 262.09375 159.757812 C 262.109375 159.886719 262.128906 160.050781 262.15625 160.242188 C 262.183594 160.433594 262.210938 160.660156 262.210938 160.910156 C 262.21875 161.167969 262.226562 161.453125 262.238281 161.769531 C 262.238281 162.085938 262.203125 162.425781 262.1875 162.800781 C 262.175781 163.179688 262.109375 163.574219 262.054688 164.003906 C 262 164.4375 261.894531 164.882812 261.789062 165.363281 C 261.695312 165.847656 261.535156 166.332031 261.375 166.851562 C 261.300781 167.117188 261.199219 167.371094 261.097656 167.636719 C 260.996094 167.90625 260.890625 168.179688 260.785156 168.457031 C 260.535156 168.988281 260.300781 169.574219 259.984375 170.132812 C 259.828125 170.414062 259.671875 170.703125 259.511719 170.996094 C 259.34375 171.285156 259.160156 171.570312 258.980469 171.867188 C 258.886719 172.011719 258.792969 172.160156 258.703125 172.3125 C 258.601562 172.453125 258.5 172.597656 258.398438 172.746094 C 258.1875 173.035156 257.980469 173.332031 257.761719 173.628906 C 257.300781 174.199219 256.839844 174.804688 256.3125 175.375 C 255.808594 175.972656 255.230469 176.519531 254.652344 177.101562 C 254.046875 177.648438 253.4375 178.230469 252.769531 178.761719 C 252.117188 179.324219 251.402344 179.820312 250.679688 180.351562 C 249.941406 180.84375 249.1875 181.359375 248.390625 181.820312 C 246.800781 182.765625 245.085938 183.640625 243.253906 184.371094 C 242.800781 184.566406 242.332031 184.738281 241.863281 184.90625 C 241.390625 185.074219 240.921875 185.253906 240.433594 185.398438 C 239.949219 185.546875 239.464844 185.707031 238.972656 185.847656 C 238.472656 185.976562 237.976562 186.105469 237.472656 186.238281 C 235.453125 186.722656 233.347656 187.070312 231.191406 187.273438 C 230.652344 187.3125 230.109375 187.347656 229.566406 187.386719 C 229.019531 187.429688 228.472656 187.417969 227.921875 187.4375 C 227.648438 187.441406 227.371094 187.445312 227.097656 187.449219 C 226.808594 187.441406 226.519531 187.433594 226.230469 187.425781 C 225.941406 187.417969 225.652344 187.410156 225.363281 187.402344 L 224.925781 187.386719 C 224.78125 187.378906 224.667969 187.367188 224.535156 187.359375 C 224.027344 187.320312 223.515625 187.285156 223.007812 187.246094 L 222.910156 187.238281 C 222.851562 187.234375 222.972656 187.246094 222.769531 187.222656 L 222.714844 187.21875 L 222.511719 187.195312 L 222.097656 187.148438 L 221.269531 187.050781 C 220.164062 186.902344 219.054688 186.722656 217.945312 186.507812 C 213.507812 185.640625 209.085938 184.121094 204.992188 182.027344 C 202.949219 180.980469 200.976562 179.8125 199.105469 178.539062 C 198.640625 178.21875 198.179688 177.898438 197.71875 177.570312 C 197.269531 177.234375 196.8125 176.910156 196.375 176.566406 C 195.488281 175.886719 194.617188 175.203125 193.785156 174.488281 C 190.417969 171.65625 187.445312 168.625 184.714844 165.667969 C 181.984375 162.710938 179.492188 159.820312 177.101562 157.171875 C 174.714844 154.523438 172.4375 152.105469 170.1875 150.058594 C 167.949219 147.996094 165.75 146.300781 163.667969 144.964844 C 162.628906 144.292969 161.609375 143.738281 160.65625 143.226562 C 159.691406 142.742188 158.785156 142.316406 157.945312 141.972656 C 156.261719 141.285156 154.875 140.847656 153.921875 140.566406 C 152.957031 140.300781 152.441406 140.15625 152.441406 140.15625 " fill-opacity="1" fill-rule="nonzero"/></g><g clip-path="url(#2b11392d30)"><path fill="#444142" d="M 174.699219 154.554688 C 171.53125 157.464844 168.351562 160.539062 165.03125 163.449219 C 161.238281 166.75 157.226562 169.8125 152.839844 171.839844 C 150.648438 172.859375 148.371094 173.605469 146.019531 174.070312 C 145.726562 174.132812 145.425781 174.171875 145.132812 174.226562 C 144.828125 174.285156 144.554688 174.316406 144.28125 174.351562 C 144 174.386719 143.753906 174.429688 143.378906 174.457031 L 142.859375 174.507812 L 142.601562 174.535156 L 142.4375 174.546875 C 141.230469 174.632812 140.019531 174.640625 138.816406 174.585938 C 137.613281 174.539062 136.421875 174.394531 135.246094 174.183594 C 134.070312 173.972656 132.914062 173.699219 131.789062 173.339844 C 129.554688 172.617188 127.441406 171.605469 125.65625 170.316406 C 124.761719 169.675781 123.953125 168.964844 123.261719 168.214844 C 122.570312 167.464844 121.996094 166.664062 121.59375 165.855469 C 121.496094 165.652344 121.386719 165.453125 121.3125 165.25 L 121.1875 164.949219 L 121.089844 164.644531 C 121.011719 164.445312 120.980469 164.242188 120.925781 164.042969 C 120.910156 163.992188 120.898438 163.941406 120.894531 163.914062 L 120.878906 163.816406 L 120.855469 163.714844 L 120.839844 163.667969 L 120.832031 163.640625 C 120.832031 163.636719 120.828125 163.625 120.828125 163.601562 L 120.792969 163.105469 L 120.777344 162.863281 L 120.777344 162.851562 C 120.777344 162.65625 120.761719 162.457031 120.789062 162.257812 C 120.796875 162.160156 120.796875 162.058594 120.808594 161.960938 L 120.855469 161.664062 C 120.875 161.460938 120.945312 161.265625 120.980469 161.0625 C 121.394531 159.457031 122.535156 157.839844 124.007812 156.4375 C 125.496094 155.03125 127.320312 153.867188 129.230469 152.921875 C 131.140625 151.96875 133.160156 151.261719 135.164062 150.714844 C 135.664062 150.570312 136.171875 150.460938 136.671875 150.335938 C 137.171875 150.230469 137.671875 150.117188 138.171875 150.03125 C 138.671875 149.941406 139.167969 149.851562 139.664062 149.785156 C 139.910156 149.75 140.15625 149.714844 140.402344 149.679688 C 140.640625 149.652344 140.878906 149.621094 141.113281 149.59375 C 141.566406 149.527344 142.117188 149.496094 142.617188 149.449219 L 142.808594 149.433594 L 142.855469 149.429688 C 142.90625 149.429688 142.84375 149.425781 142.867188 149.425781 L 143.316406 149.40625 C 143.554688 149.390625 143.792969 149.378906 144.027344 149.367188 C 144.265625 149.359375 144.5 149.339844 144.734375 149.335938 C 144.96875 149.335938 145.199219 149.332031 145.433594 149.332031 C 145.894531 149.339844 146.355469 149.304688 146.804688 149.332031 C 148.621094 149.34375 150.332031 149.539062 151.945312 149.753906 C 153.558594 149.980469 155.035156 150.339844 156.410156 150.699219 C 157.757812 151.105469 159.003906 151.527344 160.078125 152.007812 C 160.347656 152.128906 160.621094 152.230469 160.871094 152.359375 C 161.121094 152.484375 161.363281 152.609375 161.597656 152.726562 C 162.082031 152.953125 162.496094 153.21875 162.902344 153.445312 C 163.316406 153.667969 163.648438 153.933594 163.984375 154.144531 C 164.324219 154.359375 164.601562 154.578125 164.851562 154.777344 C 165.105469 154.980469 165.34375 155.140625 165.527344 155.3125 C 165.710938 155.480469 165.867188 155.621094 165.996094 155.734375 C 166.246094 155.964844 166.378906 156.082031 166.378906 156.082031 C 166.378906 156.082031 166.28125 155.933594 166.097656 155.648438 C 166.003906 155.507812 165.886719 155.332031 165.75 155.121094 C 165.621094 154.90625 165.421875 154.6875 165.21875 154.421875 C 164.390625 153.371094 163.023438 151.925781 160.945312 150.476562 C 159.921875 149.722656 158.699219 149.035156 157.335938 148.328125 C 156.644531 148.007812 155.929688 147.640625 155.152344 147.351562 C 154.769531 147.199219 154.378906 147.03125 153.972656 146.886719 C 153.566406 146.746094 153.152344 146.605469 152.734375 146.460938 C 152.3125 146.308594 151.875 146.199219 151.4375 146.066406 C 150.996094 145.9375 150.546875 145.808594 150.085938 145.707031 C 149.625 145.601562 149.15625 145.484375 148.679688 145.382812 C 148.199219 145.292969 147.714844 145.203125 147.222656 145.109375 C 146.976562 145.058594 146.726562 145.019531 146.476562 144.984375 C 146.222656 144.953125 145.96875 144.917969 145.714844 144.882812 C 145.460938 144.847656 145.203125 144.816406 144.945312 144.78125 C 144.6875 144.75 144.425781 144.734375 144.164062 144.707031 C 143.898438 144.683594 143.636719 144.664062 143.371094 144.640625 L 142.96875 144.605469 L 142.867188 144.597656 L 142.734375 144.589844 L 142.542969 144.582031 C 142.023438 144.554688 141.539062 144.515625 140.949219 144.515625 C 140.664062 144.507812 140.378906 144.503906 140.089844 144.5 C 139.804688 144.5 139.527344 144.507812 139.242188 144.511719 C 138.675781 144.519531 138.105469 144.554688 137.523438 144.585938 C 136.945312 144.621094 136.363281 144.675781 135.769531 144.730469 C 135.179688 144.800781 134.582031 144.859375 133.984375 144.957031 C 132.78125 145.121094 131.566406 145.382812 130.339844 145.6875 C 129.109375 145.992188 127.871094 146.390625 126.628906 146.847656 C 126.003906 147.078125 125.382812 147.339844 124.761719 147.613281 C 124.144531 147.90625 123.527344 148.203125 122.914062 148.542969 C 121.6875 149.214844 120.472656 149.996094 119.300781 150.925781 C 118.132812 151.851562 117.007812 152.933594 116.015625 154.222656 C 115.027344 155.507812 114.144531 156.992188 113.5625 158.683594 C 113.429688 159.109375 113.277344 159.53125 113.183594 159.976562 L 113.035156 160.644531 C 112.992188 160.867188 112.960938 161.09375 112.925781 161.320312 C 112.847656 161.773438 112.824219 162.234375 112.796875 162.699219 L 112.785156 162.871094 L 112.78125 162.957031 L 112.785156 163.1875 L 112.789062 163.433594 L 112.796875 163.929688 C 112.8125 164.164062 112.839844 164.449219 112.863281 164.703125 C 112.890625 164.957031 112.917969 165.253906 112.960938 165.460938 C 113.046875 165.910156 113.117188 166.371094 113.242188 166.804688 L 113.421875 167.464844 C 113.488281 167.679688 113.5625 167.890625 113.636719 168.105469 C 113.777344 168.539062 113.953125 168.945312 114.132812 169.355469 C 114.859375 170.984375 115.824219 172.4375 116.914062 173.730469 C 118.003906 175.027344 119.230469 176.160156 120.527344 177.160156 C 121.824219 178.164062 123.207031 179.023438 124.636719 179.765625 C 126.066406 180.511719 127.542969 181.132812 129.058594 181.644531 C 132.082031 182.652344 135.230469 183.226562 138.382812 183.382812 C 139.960938 183.457031 141.539062 183.433594 143.105469 183.3125 L 143.179688 183.308594 L 143.332031 183.296875 L 143.71875 183.257812 L 144.238281 183.203125 C 144.554688 183.179688 144.996094 183.113281 145.402344 183.054688 C 145.816406 182.996094 146.230469 182.9375 146.609375 182.863281 C 146.996094 182.789062 147.382812 182.726562 147.769531 182.640625 C 150.847656 181.996094 153.828125 180.921875 156.570312 179.554688 C 159.308594 178.175781 161.820312 176.527344 164.09375 174.742188 C 166.375 172.964844 168.441406 171.078125 170.359375 169.167969 C 173.636719 165.921875 176.519531 162.65625 179.28125 159.609375 C 178.542969 158.78125 177.816406 157.964844 177.101562 157.171875 C 176.289062 156.269531 175.488281 155.398438 174.699219 154.554688 Z M 213.195312 136.007812 C 212.855469 136.015625 212.347656 136 211.691406 136.039062 C 211.359375 136.058594 210.992188 136.078125 210.585938 136.097656 C 210.179688 136.121094 209.738281 136.171875 209.257812 136.214844 C 208.300781 136.304688 207.203125 136.453125 205.976562 136.667969 C 205.363281 136.773438 204.71875 136.902344 204.042969 137.050781 C 203.371094 137.214844 202.664062 137.375 201.9375 137.582031 C 200.476562 137.976562 198.914062 138.492188 197.277344 139.136719 C 195.640625 139.777344 193.9375 140.570312 192.183594 141.488281 C 190.433594 142.414062 188.648438 143.492188 186.84375 144.695312 C 185.046875 145.902344 183.246094 147.257812 181.433594 148.703125 C 181.273438 148.832031 181.113281 148.964844 180.953125 149.09375 C 181.699219 149.699219 182.441406 150.324219 183.1875 150.964844 C 183.953125 151.625 184.71875 152.300781 185.484375 152.988281 C 186.988281 151.46875 188.476562 150.046875 189.957031 148.746094 C 192.972656 146.070312 195.964844 143.894531 198.78125 142.195312 C 200.183594 141.332031 201.554688 140.621094 202.839844 139.980469 C 204.125 139.339844 205.347656 138.828125 206.457031 138.371094 C 208.695312 137.488281 210.519531 136.910156 211.773438 136.546875 C 213.039062 136.191406 213.710938 136 213.710938 136 C 213.710938 136 213.535156 136.003906 213.195312 136.007812 " fill-opacity="1" fill-rule="nonzero"/></g></svg>