<svg xmlns="http://www.w3.org/2000/svg" xmlns:xlink="http://www.w3.org/1999/xlink" width="500" zoomAndPan="magnify" viewBox="0 0 375 374.999991" height="500" preserveAspectRatio="xMidYMid meet" version="1.0"><defs><g/><clipPath id="7d299feae4"><path d="M 112.5 134.3125 L 194 134.3125 L 194 200 L 112.5 200 Z M 112.5 134.3125 " clip-rule="nonzero"/></clipPath><clipPath id="2c5fa177fc"><path d="M 125 137 L 262.5 137 L 262.5 192 L 125 192 Z M 125 137 " clip-rule="nonzero"/></clipPath></defs><g clip-path="url(#7d299feae4)"><path fill="#31abe1" d="M 191.765625 176.25 C 188.578125 173.859375 185.445312 171.335938 182.382812 168.839844 C 180.097656 170.589844 177.804688 172.296875 175.496094 173.9375 C 172.355469 176.15625 169.1875 178.253906 165.988281 180.09375 C 164.386719 181.015625 162.777344 181.871094 161.167969 182.644531 C 159.558594 183.421875 157.949219 184.117188 156.339844 184.707031 C 153.132812 185.878906 149.941406 186.632812 146.902344 186.796875 C 145.378906 186.871094 143.871094 186.816406 142.386719 186.617188 C 140.898438 186.421875 139.445312 186.070312 138.035156 185.605469 C 135.214844 184.65625 132.59375 183.179688 130.34375 181.304688 C 128.085938 179.441406 126.191406 177.1875 124.757812 174.726562 C 124.042969 173.496094 123.445312 172.214844 122.960938 170.902344 C 122.714844 170.246094 122.511719 169.582031 122.304688 168.917969 C 122.21875 168.582031 122.132812 168.246094 122.046875 167.910156 C 121.957031 167.578125 121.90625 167.238281 121.832031 166.902344 C 121.75 166.554688 121.710938 166.253906 121.660156 165.945312 L 121.582031 165.484375 L 121.5625 165.367188 L 121.546875 165.214844 L 121.523438 164.917969 L 121.46875 164.320312 L 121.441406 164.023438 L 121.429688 163.875 C 121.429688 164.074219 121.425781 163.890625 121.425781 163.921875 L 121.421875 163.859375 C 121.40625 163.519531 121.390625 163.179688 121.375 162.847656 C 121.347656 161.503906 121.382812 160.171875 121.53125 158.871094 C 121.691406 157.574219 121.941406 156.308594 122.269531 155.085938 C 122.617188 153.867188 123.023438 152.6875 123.496094 151.554688 C 124.472656 149.308594 125.707031 147.277344 127.085938 145.511719 C 128.460938 143.734375 129.988281 142.238281 131.527344 140.976562 C 133.074219 139.722656 134.636719 138.722656 136.121094 137.917969 C 139.105469 136.328125 141.75 135.539062 143.574219 135.117188 C 144.03125 135.019531 144.4375 134.933594 144.785156 134.859375 C 145.140625 134.785156 145.445312 134.746094 145.6875 134.703125 C 146.171875 134.621094 146.421875 134.582031 146.421875 134.582031 C 146.421875 134.582031 146.167969 134.550781 145.679688 134.496094 C 145.4375 134.472656 145.132812 134.425781 144.769531 134.398438 C 144.40625 134.375 143.984375 134.351562 143.496094 134.328125 C 143.015625 134.316406 142.476562 134.324219 141.878906 134.324219 C 141.582031 134.339844 141.269531 134.355469 140.945312 134.375 C 140.617188 134.390625 140.277344 134.410156 139.929688 134.457031 C 138.515625 134.578125 136.898438 134.867188 135.113281 135.359375 C 133.324219 135.851562 131.378906 136.582031 129.359375 137.636719 C 128.347656 138.15625 127.324219 138.769531 126.296875 139.460938 C 125.285156 140.175781 124.246094 140.949219 123.25 141.847656 C 122.238281 142.726562 121.261719 143.71875 120.316406 144.804688 C 119.378906 145.898438 118.496094 147.097656 117.648438 148.378906 C 116.832031 149.675781 116.050781 151.0625 115.390625 152.550781 C 114.738281 154.042969 114.167969 155.621094 113.707031 157.277344 C 113.265625 158.9375 112.921875 160.671875 112.742188 162.464844 C 112.703125 162.910156 112.667969 163.363281 112.632812 163.816406 C 112.613281 164.257812 112.597656 164.699219 112.578125 165.144531 L 112.566406 165.445312 L 112.5625 165.59375 L 112.5625 165.777344 L 112.578125 166.519531 C 112.585938 167.015625 112.597656 167.523438 112.636719 167.980469 C 112.835938 171.75 113.785156 175.636719 115.417969 179.371094 C 116.242188 181.238281 117.234375 183.066406 118.421875 184.8125 C 119.613281 186.546875 120.980469 188.203125 122.511719 189.742188 C 125.582031 192.804688 129.324219 195.390625 133.542969 197.167969 C 137.753906 198.957031 142.433594 199.925781 147.160156 199.933594 L 147.523438 199.9375 C 147.648438 199.9375 147.753906 199.941406 147.929688 199.933594 L 148.886719 199.898438 L 149.367188 199.878906 L 149.804688 199.851562 L 150.679688 199.785156 C 151.839844 199.679688 152.996094 199.523438 154.132812 199.324219 C 156.402344 198.921875 158.617188 198.363281 160.761719 197.671875 C 162.902344 196.976562 164.976562 196.164062 166.988281 195.277344 C 169 194.378906 170.949219 193.398438 172.851562 192.367188 C 174.753906 191.339844 176.59375 190.238281 178.398438 189.105469 C 180.199219 187.972656 181.960938 186.800781 183.683594 185.597656 C 187.246094 183.117188 190.652344 180.515625 193.960938 177.890625 C 193.265625 177.375 192.554688 176.84375 191.765625 176.25 " fill-opacity="1" fill-rule="nonzero"/></g><path fill="#31abe1" d="M 259.234375 159.023438 C 259.085938 158.144531 258.882812 157.261719 258.621094 156.386719 C 258.355469 155.511719 258.023438 154.640625 257.636719 153.785156 C 256.09375 150.363281 253.574219 147.117188 250.195312 144.71875 C 246.84375 142.308594 242.738281 140.71875 238.496094 140.179688 C 236.375 139.894531 234.226562 139.851562 232.101562 140 C 229.96875 140.140625 227.867188 140.496094 225.804688 140.988281 C 223.746094 141.484375 221.730469 142.132812 219.769531 142.90625 C 219.277344 143.097656 218.796875 143.300781 218.308594 143.503906 C 217.820312 143.714844 217.359375 143.910156 216.847656 144.152344 L 216.105469 144.5 L 215.472656 144.804688 L 215.316406 144.882812 L 215.089844 145 L 214.730469 145.1875 C 214.488281 145.3125 214.242188 145.4375 214.011719 145.566406 C 212.125 146.585938 210.347656 147.671875 208.640625 148.808594 C 206.929688 149.941406 205.269531 151.105469 203.644531 152.292969 C 200.398438 154.675781 197.253906 157.132812 194.140625 159.597656 C 194.097656 159.632812 194.050781 159.667969 194.007812 159.703125 C 196.191406 161.503906 198.339844 163.265625 200.503906 164.996094 C 201.480469 165.773438 202.652344 166.695312 203.835938 167.59375 C 204.324219 167.972656 204.785156 168.324219 205.226562 168.660156 C 207.492188 166.78125 209.722656 164.9375 211.933594 163.1875 C 213.398438 162.023438 214.84375 160.898438 216.28125 159.851562 C 217.722656 158.804688 219.140625 157.824219 220.527344 156.96875 C 220.703125 156.855469 220.875 156.761719 221.046875 156.65625 L 221.304688 156.503906 L 221.367188 156.464844 C 221.398438 156.445312 221.3125 156.492188 221.386719 156.449219 L 221.539062 156.363281 L 222.152344 156.015625 L 222.667969 155.734375 C 222.988281 155.550781 223.375 155.355469 223.726562 155.164062 C 224.085938 154.984375 224.445312 154.796875 224.808594 154.628906 C 225.527344 154.277344 226.25 153.957031 226.972656 153.664062 C 227.695312 153.371094 228.414062 153.089844 229.132812 152.851562 C 232.003906 151.886719 234.839844 151.390625 237.492188 151.4375 C 240.136719 151.496094 242.601562 152.074219 244.71875 153.203125 C 245.773438 153.765625 246.734375 154.457031 247.609375 155.234375 C 248.480469 156.015625 249.234375 156.90625 249.863281 157.863281 C 250.488281 158.824219 250.996094 159.847656 251.375 160.898438 C 251.75 161.949219 251.988281 163.03125 252.089844 164.105469 C 252.296875 166.253906 251.996094 168.375 251.246094 170.25 C 250.515625 172.132812 249.382812 173.789062 248.0625 175.132812 C 246.761719 176.503906 245.28125 177.5625 243.855469 178.414062 C 240.980469 180.109375 238.328125 180.941406 236.53125 181.472656 C 235.625 181.730469 234.917969 181.910156 234.4375 182.023438 C 233.957031 182.136719 233.710938 182.195312 233.710938 182.195312 C 233.710938 182.195312 233.964844 182.21875 234.457031 182.257812 C 234.949219 182.296875 235.683594 182.355469 236.648438 182.363281 C 237.613281 182.382812 238.808594 182.351562 240.222656 182.210938 C 241.636719 182.074219 243.265625 181.785156 245.074219 181.261719 C 246.878906 180.726562 248.859375 179.910156 250.867188 178.613281 C 252.855469 177.308594 254.859375 175.488281 256.457031 173.046875 C 258.027344 170.605469 259.1875 167.5625 259.457031 164.199219 C 259.59375 162.527344 259.527344 160.78125 259.234375 159.023438 " fill-opacity="1" fill-rule="nonzero"/><g clip-path="url(#2c5fa177fc)"><path fill="#242424" d="M 138.183594 180.566406 C 138.183594 180.566406 138 180.523438 137.648438 180.4375 C 137.292969 180.359375 136.769531 180.21875 136.089844 179.980469 C 134.769531 179.492188 132.765625 178.644531 130.730469 176.753906 C 128.695312 174.902344 126.726562 171.945312 125.730469 168.128906 C 124.730469 164.328125 124.671875 159.71875 126.089844 155 C 126.792969 152.648438 127.878906 150.273438 129.398438 148.023438 C 130.914062 145.78125 132.90625 143.691406 135.324219 141.984375 C 137.734375 140.269531 140.605469 139.019531 143.648438 138.339844 C 146.695312 137.640625 149.902344 137.589844 153.023438 137.988281 C 153.808594 138.082031 154.578125 138.222656 155.359375 138.363281 L 156.492188 138.617188 C 156.90625 138.726562 157.351562 138.84375 157.742188 138.964844 C 159.300781 139.4375 160.785156 140.027344 162.222656 140.679688 C 165.097656 141.988281 167.765625 143.5625 170.320312 145.257812 C 175.449219 148.625 180.167969 152.445312 184.828125 156.226562 C 189.453125 160.046875 194.003906 163.855469 198.519531 167.46875 C 199.652344 168.367188 200.785156 169.257812 201.917969 170.121094 C 203.046875 170.992188 204.175781 171.851562 205.308594 172.675781 C 207.566406 174.339844 209.847656 175.890625 212.113281 177.347656 C 216.65625 180.238281 221.238281 182.621094 225.78125 184.160156 C 226.910156 184.554688 228.042969 184.882812 229.164062 185.160156 L 229.585938 185.261719 L 229.792969 185.3125 L 229.902344 185.335938 L 229.953125 185.351562 C 229.949219 185.351562 230.035156 185.367188 229.960938 185.355469 C 230.261719 185.414062 230.5625 185.476562 230.867188 185.535156 C 231.449219 185.636719 231.917969 185.734375 232.492188 185.8125 C 234.691406 186.140625 236.859375 186.203125 238.929688 186.074219 C 243.082031 185.828125 246.828125 184.703125 249.914062 183.171875 C 253.011719 181.644531 255.433594 179.707031 257.269531 177.9375 C 259.097656 176.152344 260.386719 174.550781 261.199219 173.417969 C 261.621094 172.859375 261.917969 172.410156 262.125 172.113281 C 262.332031 171.8125 262.4375 171.660156 262.4375 171.660156 C 262.4375 171.660156 262.371094 171.832031 262.234375 172.171875 C 262.09375 172.507812 261.914062 173.023438 261.605469 173.65625 C 261.011719 174.9375 260.089844 176.824219 258.511719 179.011719 C 256.941406 181.183594 254.703125 183.6875 251.523438 185.878906 C 249.945312 186.980469 248.128906 187.976562 246.121094 188.832031 C 244.105469 189.667969 241.886719 190.34375 239.515625 190.761719 C 238.328125 190.988281 237.101562 191.125 235.847656 191.207031 C 234.597656 191.296875 233.3125 191.3125 232.003906 191.253906 C 231.375 191.238281 230.636719 191.171875 230.003906 191.113281 C 229.699219 191.078125 229.394531 191.046875 229.085938 191.011719 C 228.742188 190.960938 228.394531 190.910156 228.046875 190.859375 C 226.726562 190.652344 225.390625 190.390625 224.0625 190.054688 C 218.738281 188.71875 213.464844 186.417969 208.40625 183.558594 C 205.867188 182.140625 203.378906 180.570312 200.925781 178.917969 C 199.699219 178.09375 198.480469 177.246094 197.269531 176.382812 C 196.0625 175.511719 194.867188 174.617188 193.675781 173.71875 C 188.898438 170.132812 184.273438 166.28125 179.664062 162.527344 C 177.371094 160.636719 175.085938 158.765625 172.789062 156.960938 C 170.488281 155.171875 168.214844 153.394531 165.898438 151.800781 C 163.585938 150.203125 161.265625 148.722656 158.9375 147.542969 C 157.777344 146.957031 156.613281 146.445312 155.460938 146.042969 L 154.675781 145.777344 L 153.75 145.515625 C 153.144531 145.371094 152.542969 145.222656 151.941406 145.117188 C 147.125 144.195312 142.421875 144.890625 138.65625 147.113281 C 134.871094 149.300781 132.097656 152.867188 130.519531 156.585938 C 128.902344 160.316406 128.433594 164.199219 128.808594 167.535156 C 129.175781 170.886719 130.429688 173.683594 131.9375 175.652344 C 132.6875 176.644531 133.488281 177.441406 134.234375 178.085938 C 134.988281 178.730469 135.699219 179.195312 136.289062 179.558594 C 136.886719 179.90625 137.355469 180.171875 137.6875 180.324219 C 138.015625 180.484375 138.183594 180.566406 138.183594 180.566406 " fill-opacity="1" fill-rule="nonzero"/></g><g fill="#242424" fill-opacity="1"><g transform="translate(101.249998, 235.803911)"><g><path d="M 3.265625 0 L 3.265625 -27.1875 L 9.4375 -27.1875 L 9.4375 0 Z M 3.265625 0 "/></g></g></g><g fill="#242424" fill-opacity="1"><g transform="translate(113.945534, 235.803911)"><g><path d="M 3.265625 0 L 3.265625 -27.1875 L 8.5 -27.1875 L 20.5 -10.640625 L 20.5 -27.1875 L 26.640625 -27.1875 L 26.640625 0 L 21.390625 0 L 9.390625 -16.65625 L 9.390625 0 Z M 3.265625 0 "/></g></g></g><g fill="#242424" fill-opacity="1"><g transform="translate(143.840212, 235.803911)"><g><path d="M 3.265625 0 L 3.265625 -27.1875 L 20.3125 -27.1875 L 20.3125 -21.59375 L 9.4375 -21.59375 L 9.4375 -14.796875 L 19.296875 -14.796875 L 19.296875 -9.359375 L 9.4375 -9.359375 L 9.4375 0 Z M 3.265625 0 "/></g></g></g><g fill="#242424" fill-opacity="1"><g transform="translate(165.853562, 235.803911)"><g><path d="M 3.265625 0 L 3.265625 -27.1875 L 9.4375 -27.1875 L 9.4375 0 Z M 3.265625 0 "/></g></g></g><g fill="#242424" fill-opacity="1"><g transform="translate(178.549098, 235.803911)"><g><path d="M 3.265625 0 L 3.265625 -27.1875 L 8.5 -27.1875 L 20.5 -10.640625 L 20.5 -27.1875 L 26.640625 -27.1875 L 26.640625 0 L 21.390625 0 L 9.390625 -16.65625 L 9.390625 0 Z M 3.265625 0 "/></g></g></g><g fill="#242424" fill-opacity="1"><g transform="translate(208.443776, 235.803911)"><g><path d="M 3.265625 0 L 3.265625 -27.1875 L 9.4375 -27.1875 L 9.4375 0 Z M 3.265625 0 "/></g></g></g><g fill="#242424" fill-opacity="1"><g transform="translate(221.139312, 235.803911)"><g><path d="M 9.78125 0 L 9.78125 -21.390625 L 1.171875 -21.390625 L 1.171875 -27.1875 L 24.578125 -27.1875 L 24.578125 -21.390625 L 15.953125 -21.390625 L 15.953125 0 Z M 9.78125 0 "/></g></g></g><g fill="#242424" fill-opacity="1"><g transform="translate(246.879797, 235.803911)"><g><path d="M 10.359375 0 L 10.359375 -9.515625 L 0.34375 -27.1875 L 7.375 -27.1875 L 10.75 -20.890625 L 13.46875 -15.953125 L 16.15625 -20.890625 L 19.484375 -27.1875 L 26.515625 -27.1875 L 16.546875 -9.59375 L 16.546875 0 Z M 10.359375 0 "/></g></g></g><g fill="#242424" fill-opacity="1"><g transform="translate(151.203558, 249.171809)"><g><path d="M 0.796875 -2.34375 L 0.796875 -3.703125 L 4.6875 -3.703125 L 4.6875 -2.34375 Z M 0.796875 -2.34375 "/></g></g></g><g fill="#242424" fill-opacity="1"><g transform="translate(156.903572, 249.171809)"><g/></g></g><g fill="#242424" fill-opacity="1"><g transform="translate(159.927581, 249.171809)"><g><path d="M 1.015625 0 L 1.015625 -8.40625 L 2.921875 -8.40625 L 2.921875 0 Z M 1.015625 0 "/></g></g></g><g fill="#242424" fill-opacity="1"><g transform="translate(164.05559, 249.171809)"><g><path d="M 1.015625 0 L 1.015625 -8.40625 L 2.625 -8.40625 L 6.34375 -3.28125 L 6.34375 -8.40625 L 8.234375 -8.40625 L 8.234375 0 L 6.609375 0 L 2.90625 -5.140625 L 2.90625 0 Z M 1.015625 0 "/></g></g></g><g fill="#242424" fill-opacity="1"><g transform="translate(173.499607, 249.171809)"><g><path d="M 1.015625 0 L 1.015625 -8.40625 L 6.28125 -8.40625 L 6.28125 -6.671875 L 2.921875 -6.671875 L 2.921875 -4.578125 L 5.96875 -4.578125 L 5.96875 -2.890625 L 2.921875 -2.890625 L 2.921875 0 Z M 1.015625 0 "/></g></g></g><g fill="#242424" fill-opacity="1"><g transform="translate(180.507623, 249.171809)"><g><path d="M 4.984375 0.171875 C 4.117188 0.171875 3.347656 -0.015625 2.671875 -0.390625 C 1.992188 -0.765625 1.460938 -1.28125 1.078125 -1.9375 C 0.703125 -2.59375 0.515625 -3.347656 0.515625 -4.203125 C 0.515625 -5.054688 0.703125 -5.8125 1.078125 -6.46875 C 1.460938 -7.125 1.992188 -7.632812 2.671875 -8 C 3.347656 -8.375 4.117188 -8.5625 4.984375 -8.5625 C 5.867188 -8.5625 6.644531 -8.375 7.3125 -8 C 7.988281 -7.632812 8.519531 -7.125 8.90625 -6.46875 C 9.289062 -5.8125 9.484375 -5.054688 9.484375 -4.203125 C 9.484375 -3.347656 9.289062 -2.59375 8.90625 -1.9375 C 8.519531 -1.28125 7.988281 -0.765625 7.3125 -0.390625 C 6.644531 -0.015625 5.867188 0.171875 4.984375 0.171875 Z M 2.453125 -4.203125 C 2.453125 -3.691406 2.5625 -3.242188 2.78125 -2.859375 C 3 -2.484375 3.296875 -2.1875 3.671875 -1.96875 C 4.054688 -1.75 4.492188 -1.640625 4.984375 -1.640625 C 5.492188 -1.640625 5.9375 -1.75 6.3125 -1.96875 C 6.695312 -2.1875 6.992188 -2.484375 7.203125 -2.859375 C 7.421875 -3.242188 7.53125 -3.691406 7.53125 -4.203125 C 7.53125 -4.703125 7.421875 -5.144531 7.203125 -5.53125 C 6.992188 -5.914062 6.695312 -6.210938 6.3125 -6.421875 C 5.9375 -6.640625 5.492188 -6.75 4.984375 -6.75 C 4.492188 -6.75 4.054688 -6.640625 3.671875 -6.421875 C 3.296875 -6.210938 3 -5.914062 2.78125 -5.53125 C 2.5625 -5.144531 2.453125 -4.703125 2.453125 -4.203125 Z M 2.453125 -4.203125 "/></g></g></g><g fill="#242424" fill-opacity="1"><g transform="translate(190.70765, 249.171809)"><g><path d="M 1.015625 0 L 1.015625 -8.40625 L 2.921875 -8.40625 L 2.921875 -1.78125 L 6.59375 -1.78125 L 6.59375 0 Z M 1.015625 0 "/></g></g></g><g fill="#242424" fill-opacity="1"><g transform="translate(197.823666, 249.171809)"><g><path d="M 0.109375 0 L 3.4375 -8.40625 L 5.3125 -8.40625 L 8.65625 0 L 6.609375 0 L 6.046875 -1.453125 L 2.71875 -1.453125 L 2.140625 0 Z M 3.203125 -2.953125 L 5.5625 -2.953125 L 4.375 -6.03125 Z M 3.203125 -2.953125 "/></g></g></g><g fill="#242424" fill-opacity="1"><g transform="translate(206.787685, 249.171809)"><g><path d="M 1.015625 0 L 1.015625 -8.40625 L 4.765625 -8.40625 C 5.617188 -8.40625 6.296875 -8.195312 6.796875 -7.78125 C 7.304688 -7.375 7.5625 -6.828125 7.5625 -6.140625 C 7.5625 -5.753906 7.472656 -5.398438 7.296875 -5.078125 C 7.117188 -4.753906 6.867188 -4.5 6.546875 -4.3125 C 6.953125 -4.144531 7.265625 -3.890625 7.484375 -3.546875 C 7.703125 -3.203125 7.8125 -2.804688 7.8125 -2.359375 C 7.8125 -1.878906 7.691406 -1.460938 7.453125 -1.109375 C 7.210938 -0.765625 6.878906 -0.492188 6.453125 -0.296875 C 6.023438 -0.0976562 5.523438 0 4.953125 0 Z M 2.890625 -1.515625 L 4.671875 -1.515625 C 5.046875 -1.515625 5.335938 -1.601562 5.546875 -1.78125 C 5.753906 -1.957031 5.859375 -2.203125 5.859375 -2.515625 C 5.859375 -2.835938 5.753906 -3.085938 5.546875 -3.265625 C 5.335938 -3.441406 5.046875 -3.53125 4.671875 -3.53125 L 2.890625 -3.53125 Z M 2.890625 -4.984375 L 4.46875 -4.984375 C 4.84375 -4.984375 5.125 -5.066406 5.3125 -5.234375 C 5.507812 -5.398438 5.609375 -5.632812 5.609375 -5.9375 C 5.609375 -6.238281 5.507812 -6.472656 5.3125 -6.640625 C 5.125 -6.804688 4.84375 -6.890625 4.46875 -6.890625 L 2.890625 -6.890625 Z M 2.890625 -4.984375 "/></g></g></g><g fill="#242424" fill-opacity="1"><g transform="translate(215.2597, 249.171809)"><g/></g></g><g fill="#242424" fill-opacity="1"><g transform="translate(218.28371, 249.171809)"><g><path d="M 0.796875 -2.34375 L 0.796875 -3.703125 L 4.6875 -3.703125 L 4.6875 -2.34375 Z M 0.796875 -2.34375 "/></g></g></g></svg>